<?xml version="1.0" encoding="UTF-8"?>
<svg width="512px" height="512px" viewBox="0 0 512 512" version="1.1" xmlns="http://www.w3.org/2000/svg" xmlns:xlink="http://www.w3.org/1999/xlink">
    <title>Facebook</title>
    <g id="Facebook" stroke="none" stroke-width="1" fill="none" fill-rule="evenodd">
        <rect id="Rectangle" fill="#1877F2" x="76" y="76" width="360" height="360" rx="80"></rect>
        <path d="M238.386029,343 C238.356919,342.2753 238.302858,341.5506 238.302858,340.824512 C238.298699,316.199992 238.300086,291.574083 238.300086,266.949562 C238.300086,266.231804 238.300086,265.514046 238.300086,264.586652 L212,264.586652 L212,234.004877 L238.300086,234.004877 C238.300086,233.146899 238.297313,232.494392 238.300086,231.841884 C238.333354,223.839644 238.132357,215.826297 238.462269,207.836552 C238.860104,198.201654 241.704556,189.365037 248.494089,182.170796 C253.657628,176.696675 260.102001,173.597958 267.378086,172.041659 C273.287392,170.776905 279.26878,170.924066 285.239078,171.154526 C290.093497,171.341949 294.938214,171.759831 299.787088,172.084696 C300.168289,172.111074 300.542559,172.219363 301,172.30405 L301,199.567755 C300.420575,199.567755 299.832832,199.559425 299.24509,199.569143 C293.269247,199.655219 287.285087,199.569143 281.320333,199.878737 C274.267425,200.245252 270.279371,204.168627 269.988272,211.274016 C269.684697,218.648739 269.882922,226.044286 269.867674,233.431504 C269.867674,233.531462 269.942528,233.631421 270.058967,233.921578 L300.008878,233.921578 C298.687844,244.20343 297.395919,254.261763 296.08043,264.4978 L269.964707,264.4978 C269.907873,265.154472 269.830247,265.632052 269.830247,266.109632 C269.823316,291.350564 269.824702,316.591496 269.828861,341.832428 C269.828861,342.222544 269.882922,342.611272 269.912032,343 L238.386029,343 Z" id="Fill-1" fill="#FFFFFF"></path>
    </g>
</svg>