<?xml version="1.0" encoding="UTF-8"?>
<svg width="512px" height="512px" viewBox="0 0 512 512" version="1.1" xmlns="http://www.w3.org/2000/svg" xmlns:xlink="http://www.w3.org/1999/xlink">
    <title>Instagram</title>
    <defs>
        <linearGradient x1="0%" y1="100%" x2="100%" y2="0%" id="linearGradient-1">
            <stop stop-color="#FFCD53" offset="0%"></stop>
            <stop stop-color="#FB5149" offset="51.3482367%"></stop>
            <stop stop-color="#CE3A9F" offset="100%"></stop>
        </linearGradient>
    </defs>
    <g id="Instagram" stroke="none" stroke-width="1" fill="none" fill-rule="evenodd">
        <rect id="Rectangle" fill="url(#linearGradient-1)" x="76" y="76" width="360" height="360" rx="80"></rect>
        <path d="M317.258076,209.363652 C317.276079,201.882634 311.134565,195.731611 303.642214,195.726393 C296.19036,195.721183 289.970658,201.91432 289.967047,209.342796 C289.96344,216.746003 296.20319,222.995693 303.622567,223.020229 C311.032721,223.044224 317.239993,216.827423 317.258076,209.363652 M255.903435,212.071035 C231.057907,212.214156 211.051974,232.251909 211.039538,257.007612 C211.026713,281.786979 231.365444,302.09787 256.050187,301.95742 C280.895715,301.814304 300.901247,281.776551 300.914083,257.020848 C300.926908,232.24148 280.587777,211.930188 255.903435,212.071035 M174,297.366684 C174,270.464781 174,243.563278 174,216.661775 C174.097834,216.142372 174.186848,215.620963 174.295107,215.103564 C174.904166,212.187684 175.242978,209.18156 176.174811,206.372368 C182.494753,187.326095 199.180731,175.130335 219.158597,175.052124 C243.700999,174.956666 268.244203,175.018031 292.787005,175.03608 C300.558024,175.042096 307.971386,176.743896 314.681864,180.673315 C329.924785,189.599839 337.80286,203.015295 337.914327,220.688257 C338.067494,244.912925 337.981288,269.139198 337.916733,293.364267 C337.908714,296.388841 337.737504,299.48521 337.083136,302.423952 C332.994139,320.793596 321.814954,332.568218 303.685918,337.646743 C301.293386,338.316954 298.781367,338.559209 296.324681,339 L215.62894,339 C213.955731,338.731675 212.262073,338.553995 210.612521,338.180987 C192.229276,334.025757 180.437023,322.875623 175.352039,304.721762 C174.682435,302.331301 174.440255,299.821318 174,297.366684" id="Fill-1" fill="#FFFFFF"></path>
    </g>
</svg>