<?xml version="1.0" encoding="UTF-8"?>
<svg width="512px" height="512px" viewBox="0 0 512 512" version="1.1" xmlns="http://www.w3.org/2000/svg" xmlns:xlink="http://www.w3.org/1999/xlink">
    <title>Twitter</title>
    <g id="Twitter" stroke="none" stroke-width="1" fill="none" fill-rule="evenodd">
        <rect id="Rectangle" fill="#55ACEE" x="76" y="76" width="360" height="360" rx="80"></rect>
        <path d="M154,322.117657 C176.532723,323.634755 196.772995,318.232275 215.186271,304.297124 C195.871552,302.514198 183.158261,292.786645 175.976186,274.795606 L194.119565,274.795606 L194.232747,274.096129 C173.893357,267.705521 162.945447,253.971084 161.312671,232.112115 C167.476102,235.038235 173.289939,237.107799 180.217521,237.174927 C171.359807,230.18285 165.392604,221.82337 162.836283,211.298334 C160.26322,200.705498 162.321938,190.777903 167.598661,181.006716 C190.391235,207.656627 218.791372,222.68194 253.344896,224.874349 C253.344896,220.182756 252.953779,215.828819 253.413207,211.567518 C255.266992,194.37262 264.299503,182.129101 280.346659,176.023116 C296.401852,169.913775 311.228109,173.192989 324.0586,184.692728 C325.639139,186.109805 326.965184,186.63072 328.881253,185.889624 C335.942778,183.159519 343.015019,180.457607 350.077884,177.730858 C350.738228,177.475771 351.359058,177.117978 352.523701,176.552758 C350.984685,181.690753 348.856985,185.933258 345.717339,189.49374 C342.602472,193.02737 339.038893,196.16293 335.483351,199.658297 C339.206323,198.820537 342.927286,198.133815 346.559177,197.124878 C350.233929,196.103857 353.820279,194.763306 358,193.379122 C357.229822,194.569306 356.718156,195.433246 356.13684,196.24684 C351.332939,202.967719 345.610184,208.808547 339.040902,213.784092 C337.606362,214.870899 337.120815,215.921456 337.177742,217.714451 C338.681263,264.787457 310.786763,311.218045 268.44105,329.852844 C230.285104,346.644301 192.584567,344.398862 156.224139,323.567627 C155.45731,323.128608 154.74004,322.602994 154,322.117657" id="Fill-1" fill="#FFFFFF"></path>
    </g>
</svg>