<?xml version="1.0" encoding="UTF-8"?>
<svg width="512px" height="512px" viewBox="0 0 512 512" version="1.1" xmlns="http://www.w3.org/2000/svg" xmlns:xlink="http://www.w3.org/1999/xlink">
    <title>Youtube</title>
    <g id="Youtube" stroke="none" stroke-width="1" fill="none" fill-rule="evenodd">
        <rect id="Rectangle" fill="#CB2027" x="76" y="76" width="360" height="360" rx="80"></rect>
        <path d="M236.381326,288.629832 C237.877152,288.108011 239.462822,287.760129 240.854465,287.037607 C256.778073,278.769694 272.67683,270.45304 288.563162,262.116316 C289.633657,261.554354 290.709886,260.860503 291.526138,259.987933 C295.19545,256.066624 293.829613,250.422156 288.537355,247.663955 C272.831669,239.475367 257.110691,231.318318 241.385889,223.167003 C234.415248,219.553435 228.852499,222.917561 228.843897,230.736286 C228.833383,241.253958 228.84103,251.772585 228.84103,262.290257 C228.841985,268.278783 228.789417,274.268265 228.861101,280.255835 C228.917494,284.956054 231.983696,288.208361 236.381326,288.629832 M138,285.964336 C138,263.378819 138,240.793302 138,218.207785 C138.3049,215.16478 138.575391,212.117952 138.922346,209.07877 C139.629637,202.865651 140.99165,196.848453 144.16777,191.351166 C149.202918,182.638844 157.421832,178.649679 166.653892,176.294791 C176.759553,173.716265 187.107987,173.065422 197.491785,173.052042 C233.438422,173.004256 269.386015,172.979407 305.332652,173.021459 C312.700905,173.03006 320.078716,173.178196 327.433588,173.592978 C335.413552,174.042165 343.310362,175.207185 350.8822,177.973031 C360.547237,181.502496 367.2579,187.906759 370.483721,197.832842 C373.056732,205.750006 373.725791,213.930948 373.794608,222.143429 C373.961873,242.186738 374.153033,262.237692 373.805122,282.275266 C373.669399,290.128398 372.670589,298.068499 371.0983,305.770627 C368.030186,320.801197 359.255953,331.038843 344.133304,335.371111 C335.492883,337.846419 326.649833,338.848011 317.745611,338.881461 C278.88092,339.02673 240.015273,338.988502 201.149627,338.999985 C190.523056,339.003793 179.96817,338.271714 169.703846,335.273628 C158.559232,332.018454 149.563254,325.972584 144.342681,315.210249 C141.189501,308.708503 139.708012,301.755657 138.926169,294.625049 C138.6098,291.738782 138.307767,288.850603 138,285.964336" id="Fill-1" fill="#FFFFFF"></path>
    </g>
</svg>